<?xml version="1.0" encoding="utf-8"?>
<svg version="1.1" id="Layer_1" xmlns="http://www.w3.org/2000/svg" xmlns:xlink="http://www.w3.org/1999/xlink" x="0px" y="0px"
	 viewBox="0 0 1500 489.19" style="enable-background:new 0 0 1500 489.19;" xml:space="preserve">
<style type="text/css">
	.st0{fill:url(#SVGID_1_);}
	.st1{fill:#FFFFFF;}
	.st2{fill:url(#SVGID_2_);}
	.st3{fill:url(#SVGID_3_);}
	.st4{fill:url(#SVGID_4_);}
	.st5{fill:url(#SVGID_5_);}
	.st6{fill:url(#SVGID_6_);}
	.st7{fill:url(#SVGID_7_);}
</style>
<linearGradient id="SVGID_1_" gradientUnits="userSpaceOnUse" x1="0" y1="247.405" x2="1500" y2="247.405" gradientTransform="matrix(1 0 0 -1 0 492)">
	<stop offset="0" style="stop-color:#37A8EA"/>
	<stop offset="1" style="stop-color:#0F3AB3"/>
</linearGradient>
<rect class="st0" width="1500" height="489.19"/>
<g>
	<g>
		<g>
			<path class="st1" d="M641.75,335.07c-83.45,0-124.99-54.55-124.99-138.36c0-86.57,43.93-138.75,129.78-138.75
				c33.14,0,59.89,7.91,80.26,24.51c19.17,17,29.95,40.32,32.75,69.58h-33.54c-11.98,0-20.77-5.54-25.96-16.21
				c-9.18-19.37-27.16-29.25-53.51-29.25c-51.51,0-74.27,35.97-74.27,90.13c0,52.58,21.96,89.73,72.68,89.73
				c34.74,0,54.7-18.97,60.7-48.62h53.91C754.36,299.88,710.43,335.07,641.75,335.07z"/>
			<path class="st1" d="M847.39,83.91v251.16h-53.11V57.95h27.55C835.81,57.95,847.39,69.93,847.39,83.91z"/>
			<path class="st1" d="M909.67,57.95c17.57,0,25.96,8.79,25.56,25.95v15.57h-53.11V57.95H909.67z"/>
			<path class="st1" d="M909.67,123.83c17.17,0,25.56,8.39,25.56,25.56v185.68h-53.11V123.83H909.67z"/>
			<path class="st1" d="M1122.89,335.07c-17.57-1.2-26.35-9.58-26.35-26.36V200.1c-1.2-21.96-13.18-32.75-36.74-32.75
				c-23.56,0-35.54,10.78-35.94,32.75v134.97h-53.91V210.88c0-60.3,30.34-90.25,90.64-90.25c60.3,0,89.84,29.95,89.45,90.25v124.19
				H1122.89z"/>
			<path class="st1" d="M1212.33,57.95c17.57,0,25.96,8.79,25.56,25.95v15.57h-53.11V57.95H1212.33z"/>
			<path class="st1" d="M1212.33,123.83c17.17,0,25.56,8.39,25.56,25.56v185.68h-53.11V123.83H1212.33z"/>
			<path class="st1" d="M1325.73,83.91v122.58l72.55-82.66h63.89l-80.14,85.85l73.87,125.39h-63.89l-37.54-69.48
				c-6.79-11.98-13.58-17.97-20.37-17.97c-5.59,1.2-8.39,4.79-8.39,10.38v77.07h-53.11V57.95h27.55
				C1314.15,57.95,1325.73,69.93,1325.73,83.91z"/>
		</g>
		<g>
			<path class="st1" d="M541.8,431.24c-16.85,0-25.24-11.13-25.24-28.22c0-17.66,8.88-28.3,26.21-28.3c6.69,0,12.1,1.61,16.21,5
				c3.87,3.47,6.05,8.23,6.61,14.19h-6.77c-2.42,0-4.2-1.13-5.24-3.31c-1.85-3.95-5.48-5.97-10.8-5.97c-10.4,0-15,7.34-15,18.38
				c0,10.73,4.43,18.3,14.67,18.3c7.01,0,11.05-3.87,12.26-9.92h10.88C564.54,424.06,555.67,431.24,541.8,431.24z"/>
			<path class="st1" d="M609.89,375.6l19.67,54.83h-11.85l-3.63-11.21h-21.21l-3.63,11.21h-12.01l18.3-51.21
				c0.81-2.42,2.58-3.63,5.32-3.63h9.04V375.6z M595.86,409.95h15.08l-7.58-23.3L595.86,409.95z"/>
			<path class="st1" d="M682.18,404.14c2.34,0.81,4.11,2.1,5.24,3.79c0.96,1.85,1.45,4.6,1.69,8.14l0.48,10.73
				c0.08,1.69,0.72,2.9,1.77,3.63h-12.34c-0.57-1.05-0.81-2.18-0.89-3.31c-0.24-0.81-0.4-3.95-0.48-9.27
				c-0.4-6.61-1.61-8.71-8.23-8.71h-11.93v21.29h-11.2v-48.95c0-3.15,2.5-5.89,5.64-5.89h20.8c11.37,0,17.66,4.35,17.66,15.64
				C690.4,398.17,687.43,402.69,682.18,404.14z M671.37,385.11H657.5v14.43h13.23c5.32,0,8.31-1.93,8.31-7.26
				C679.04,387.29,676.38,385.11,671.37,385.11z"/>
			<path class="st1" d="M708.35,381.48c0-3.79,1.85-5.81,5.64-5.89h34.03v9.51h-28.63v11.77h21.37v3.63
				c0.08,3.79-1.85,5.65-5.81,5.65h-15.56v14.19h28.63v10.08h-39.67L708.35,381.48L708.35,381.48z"/>
			<path class="st1" d="M863.06,375.6l-15.56,54.83h-10.72l-8.47-42.01l-8.55,42.01h-10.8l-15.64-54.83H805l9.28,38.62l8.07-38.62
				h11.93l7.91,38.62l8.31-34.35c0.96-2.82,2.82-4.27,5.64-4.27L863.06,375.6L863.06,375.6z"/>
			<path class="st1" d="M877.72,381.48c0-3.87,1.85-5.89,5.64-5.89h5.56v54.83h-11.2V381.48z"/>
			<path class="st1" d="M911.44,375.6h37.98v9.76h-16.21v45.07H922v-45.07h-16.2v-3.87C905.8,378.34,908.29,375.6,911.44,375.6z"/>
			<path class="st1" d="M971.55,375.6h5.72v20.48h22.5V375.6h11.37v54.83h-11.37v-24.27h-22.5v24.27H965.9v-48.95
				C965.9,378.34,968.4,375.6,971.55,375.6z"/>
			<path class="st1" d="M1027.14,403.01c0-16.77,9.92-28.3,26.21-28.3c16.37,0,26.29,11.69,26.29,28.3
				c0,16.85-9.6,28.22-26.29,28.22C1036.65,431.24,1027.14,419.79,1027.14,403.01z M1038.35,403.01c0,10.73,4.76,18.79,15,18.79
				s15.07-7.74,15.07-18.79c0-10.8-4.83-18.54-15.07-18.54S1038.35,392.37,1038.35,403.01z"/>
			<path class="st1" d="M1102.01,375.6h5.56v33.87c0,7.98,3.55,12.01,10.56,12.1c7.01,0.08,10.56-4.03,10.56-12.1V375.6h11.13v35.16
				c0,13.47-7.91,20.48-21.69,20.48c-14.03,0-21.77-6.61-21.77-20.48v-29.27C1096.37,378.5,1098.94,375.6,1102.01,375.6z"/>
			<path class="st1" d="M1161.96,375.6h37.98v9.76h-16.2v45.07h-11.21v-45.07h-16.2v-3.87
				C1156.31,378.34,1158.81,375.6,1161.96,375.6z"/>
			<path class="st1" d="M1314.66,375.6l-15.56,54.83h-10.72l-8.47-42.01l-8.55,42.01h-10.8l-15.64-54.83h11.69l9.28,38.62
				l8.07-38.62h11.93l7.91,38.62l8.31-34.35c0.96-2.82,2.82-4.27,5.64-4.27L1314.66,375.6L1314.66,375.6z"/>
			<path class="st1" d="M1354.06,375.6l19.67,54.83h-11.85l-3.63-11.21h-21.21l-3.63,11.21h-12.01l18.3-51.21
				c0.81-2.42,2.58-3.63,5.32-3.63h9.04V375.6z M1340.02,409.95h15.08l-7.58-23.3L1340.02,409.95z"/>
			<path class="st1" d="M1390.47,381.48c0-3.87,1.85-5.89,5.64-5.89h5.56v54.83h-11.2L1390.47,381.48L1390.47,381.48z"/>
			<path class="st1" d="M1424.19,375.6h37.98v9.76h-16.21v45.07h-11.21v-45.07h-16.2v-3.87
				C1418.55,378.34,1421.04,375.6,1424.19,375.6z"/>
		</g>
	</g>
	<g>
		<linearGradient id="SVGID_2_" gradientUnits="userSpaceOnUse" x1="43.9793" y1="307.775" x2="308.1411" y2="307.775" gradientTransform="matrix(1 0 0 -1 0 492)">
			<stop offset="1.533547e-07" style="stop-color:#A7A9AC"/>
			<stop offset="1" style="stop-color:#FFFFFF"/>
		</linearGradient>
		<path class="st2" d="M230.21,37.83c-23.73,0-42.96,19.23-42.96,42.96v106.46H80.79c-23.73,0-42.96,19.23-42.96,42.96v100.41
			c161.68-0.08,292.71-131.11,292.79-292.79L230.21,37.83L230.21,37.83z"/>
		<linearGradient id="SVGID_3_" gradientUnits="userSpaceOnUse" x1="217.2928" y1="433.097" x2="287.0555" y2="343.2395" gradientTransform="matrix(1 0 0 -1 0 492)">
			<stop offset="0" style="stop-color:#FFFFFF"/>
			<stop offset="1" style="stop-color:#A7A9AC"/>
		</linearGradient>
		<path class="st3" d="M230.21,37.83c-23.73,0-42.96,19.23-42.96,42.96v106.46c118.2,0,143.37-149.42,143.37-149.42H230.21z"/>
		<linearGradient id="SVGID_4_" gradientUnits="userSpaceOnUse" x1="157.1978" y1="187.035" x2="434.7749" y2="187.035" gradientTransform="matrix(1 0 0 -1 0 492)">
			<stop offset="0" style="stop-color:#FFFFFF"/>
			<stop offset="1" style="stop-color:#A7A9AC"/>
		</linearGradient>
		<path class="st4" d="M158.57,451.36h100.41c23.73,0,42.96-19.23,42.96-42.96V301.94H408.4c23.73,0,42.96-19.23,42.96-42.96V158.57
			C289.68,158.65,158.64,289.68,158.57,451.36z"/>
		<linearGradient id="SVGID_5_" gradientUnits="userSpaceOnUse" x1="216.0152" y1="133.6914" x2="285.7781" y2="43.834" gradientTransform="matrix(1 0 0 -1 0 492)">
			<stop offset="1.533547e-07" style="stop-color:#A7A9AC"/>
			<stop offset="1" style="stop-color:#FFFFFF"/>
		</linearGradient>
		<path class="st5" d="M158.57,451.36h100.41c23.73,0,42.96-19.23,42.96-42.96V301.94C183.74,301.94,158.57,451.36,158.57,451.36z"/>
		<g>
			<linearGradient id="SVGID_6_" gradientUnits="userSpaceOnUse" x1="82.2793" y1="409.7207" x2="132.9049" y2="359.0951" gradientTransform="matrix(1 0 0 -1 0 492)">
				<stop offset="0" style="stop-color:#FFFFFF"/>
				<stop offset="1" style="stop-color:#A7A9AC"/>
			</linearGradient>
			<circle class="st6" cx="112.54" cy="112.54" r="40.74"/>
		</g>
		<g>
			<linearGradient id="SVGID_7_" gradientUnits="userSpaceOnUse" x1="406.7474" y1="85.2526" x2="346.6713" y2="145.3288" gradientTransform="matrix(1 0 0 -1 0 492)">
				<stop offset="0" style="stop-color:#FFFFFF"/>
				<stop offset="1" style="stop-color:#A7A9AC"/>
			</linearGradient>
			<circle class="st7" cx="376.65" cy="376.65" r="40.74"/>
		</g>
	</g>
</g>
</svg>
